<svg preserveAspectRatio="none" width="100%" height="100%" overflow="visible" style="display: block;" viewBox="0 0 40 40" fill="none" xmlns="http://www.w3.org/2000/svg">
<g id="devices">
<mask id="mask0_3743_952" style="mask-type:alpha" maskUnits="userSpaceOnUse" x="0" y="0" width="40" height="40">
<rect id="Bounding box" width="40" height="40" fill="var(--fill-0, #D9D9D9)"/>
</mask>
<g mask="url(#mask0_3743_952)">
<path id="devices_2" d="M4.16667 32.5V28.75H7.5V10.5129C7.5 9.68431 7.795 8.975 8.385 8.385C8.975 7.795 9.6843 7.5 10.5129 7.5H34.1667V10H10.5129C10.3632 10 10.2403 10.0481 10.1442 10.1442C10.0481 10.2403 10 10.3632 10 10.5129V28.75H19.5671V32.5H4.16667ZM25.0479 32.5C24.6212 32.5 24.2635 32.3556 23.9746 32.0667C23.686 31.7781 23.5417 31.4203 23.5417 30.9933V15.1604C23.5417 14.7335 23.686 14.3757 23.9746 14.0871C24.2635 13.7982 24.6212 13.6537 25.0479 13.6537H34.3429C34.7696 13.6537 35.1274 13.7982 35.4162 14.0871C35.7049 14.3757 35.8492 14.7335 35.8492 15.1604V30.9933C35.8492 31.4203 35.7049 31.7781 35.4162 32.0667C35.1274 32.3556 34.7696 32.5 34.3429 32.5H25.0479ZM26.0417 28.75H33.3492V16.1538H26.0417V28.75Z" fill="var(--fill-0, white)"/>
</g>
</g>
</svg>
