<svg preserveAspectRatio="none" width="100%" height="100%" overflow="visible" style="display: block;" viewBox="0 0 24 24" fill="none" xmlns="http://www.w3.org/2000/svg">
<g id="format_quote">
<mask id="mask0_3743_910" style="mask-type:alpha" maskUnits="userSpaceOnUse" x="0" y="0" width="24" height="24">
<rect id="Bounding box" width="24" height="24" fill="var(--fill-0, #D9D9D9)"/>
</mask>
<g mask="url(#mask0_3743_910)">
<path id="format_quote_2" d="M6.54986 16.5L7.99986 14C6.89986 14 5.95819 13.6083 5.17486 12.825C4.39153 12.0417 3.99986 11.1 3.99986 10C3.99986 8.9 4.39153 7.95833 5.17486 7.175C5.95819 6.39167 6.89986 6 7.99986 6C9.09986 6 10.0415 6.39167 10.8249 7.175C11.6082 7.95833 11.9999 8.9 11.9999 10C11.9999 10.3833 11.954 10.7375 11.8624 11.0625C11.7707 11.3875 11.6332 11.7 11.4499 12L8.27486 17.5C8.19153 17.65 8.07486 17.7708 7.92486 17.8625C7.77486 17.9542 7.60819 18 7.42486 18C7.04153 18 6.75403 17.8333 6.56236 17.5C6.37069 17.1667 6.36653 16.8333 6.54986 16.5ZM15.5499 16.5L16.9999 14C15.8999 14 14.9582 13.6083 14.1749 12.825C13.3915 12.0417 12.9999 11.1 12.9999 10C12.9999 8.9 13.3915 7.95833 14.1749 7.175C14.9582 6.39167 15.8999 6 16.9999 6C18.0999 6 19.0415 6.39167 19.8249 7.175C20.6082 7.95833 20.9999 8.9 20.9999 10C20.9999 10.3833 20.954 10.7375 20.8624 11.0625C20.7707 11.3875 20.6332 11.7 20.4499 12L17.2749 17.5C17.1915 17.65 17.0749 17.7708 16.9249 17.8625C16.7749 17.9542 16.6082 18 16.4249 18C16.0415 18 15.754 17.8333 15.5624 17.5C15.3707 17.1667 15.3665 16.8333 15.5499 16.5Z" fill="var(--fill-0, #A0AEC0)"/>
</g>
</g>
</svg>
