<svg preserveAspectRatio="none" width="100%" height="100%" overflow="visible" style="display: block;" viewBox="0 0 40 40" fill="none" xmlns="http://www.w3.org/2000/svg">
<g id="neurology">
<mask id="mask0_3743_942" style="mask-type:alpha" maskUnits="userSpaceOnUse" x="0" y="0" width="40" height="40">
<rect id="Bounding box" width="40" height="40" fill="var(--fill-0, #D9D9D9)"/>
</mask>
<g mask="url(#mask0_3743_942)">
<path id="neurology_2" d="M16.2498 34.3267C14.9187 34.3267 13.774 33.8657 12.8156 32.9438C11.8573 32.0218 11.3301 30.9038 11.234 29.5896C9.7062 29.3568 8.43481 28.6582 7.41981 27.4938C6.40481 26.3291 5.89731 24.9636 5.89731 23.3975C5.89731 22.8506 5.96843 22.3102 6.11065 21.7763C6.25259 21.2424 6.46565 20.7411 6.74981 20.2725C6.41231 19.7831 6.15912 19.2538 5.99023 18.6846C5.82134 18.1152 5.7369 17.5174 5.7369 16.8913C5.7369 15.2924 6.26315 13.9097 7.31565 12.7434C8.36787 11.577 9.67079 10.8986 11.2244 10.7084C11.2136 10.6656 11.2081 10.6228 11.2081 10.58V10.4359C11.2595 9.09392 11.7729 7.95933 12.7481 7.03211C13.7237 6.10489 14.8909 5.64128 16.2498 5.64128C17.0148 5.64128 17.6965 5.79086 18.2948 6.09002C18.8931 6.38891 19.4615 6.81197 19.9998 7.35919C20.5318 6.81197 21.0959 6.38891 21.6923 6.09002C22.2884 5.79086 22.9743 5.64128 23.7498 5.64128C25.0937 5.64128 26.2502 6.10322 27.2194 7.02711C28.1883 7.95128 28.6984 9.07905 28.7498 10.4104V10.5546C28.7498 10.5974 28.7444 10.6402 28.7336 10.6829C30.2872 10.8729 31.597 11.5529 32.6631 12.7229C33.7295 13.8927 34.2627 15.2821 34.2627 16.8913C34.2627 17.5174 34.1756 18.1152 34.0015 18.6846C33.8273 19.2538 33.5713 19.7831 33.2336 20.2725C33.5177 20.7406 33.7336 21.2416 33.8811 21.7754C34.0286 22.3096 34.1023 22.8503 34.1023 23.3975C34.1023 24.9914 33.5905 26.3664 32.5669 27.5225C31.5436 28.6784 30.2626 29.3674 28.724 29.5896C28.6279 30.9038 28.1076 32.0218 27.1631 32.9438C26.2187 33.8657 25.0809 34.3267 23.7498 34.3267C22.9806 34.3267 22.2963 34.1814 21.6969 33.8909C21.0975 33.6003 20.5318 33.1761 19.9998 32.6184C19.4506 33.1761 18.878 33.6003 18.2819 33.8909C17.6858 34.1814 17.0084 34.3267 16.2498 34.3267ZM21.2498 10.6413V29.3271C21.2498 30.0271 21.4922 30.6188 21.9769 31.1021C22.4616 31.5854 23.0548 31.8271 23.7565 31.8271C24.4251 31.8271 24.9981 31.5781 25.4756 31.08C25.9534 30.5822 26.2115 30.0021 26.2498 29.3396C25.549 29.1924 24.902 28.9259 24.309 28.54C23.7162 28.1545 23.204 27.6603 22.7723 27.0575C22.5587 26.765 22.4781 26.4535 22.5306 26.1229C22.5831 25.7924 22.7566 25.5239 23.0511 25.3175C23.3438 25.1036 23.6575 25.0231 23.9919 25.0759C24.3266 25.1284 24.5984 25.3018 24.8073 25.5963C25.152 26.0977 25.5908 26.4816 26.1236 26.7479C26.6563 27.0143 27.2326 27.1475 27.8523 27.1475C28.8973 27.1475 29.7836 26.7838 30.5111 26.0563C31.2386 25.3285 31.6023 24.4422 31.6023 23.3975C31.6023 23.1872 31.582 22.9771 31.5415 22.7671C31.5009 22.5571 31.4368 22.3506 31.349 22.1475C30.8768 22.4681 30.3559 22.7138 29.7865 22.8846C29.217 23.0554 28.6258 23.1409 28.0127 23.1409C27.6586 23.1409 27.3616 23.0211 27.1219 22.7817C26.8825 22.542 26.7627 22.2449 26.7627 21.8904C26.7627 21.5363 26.8825 21.2395 27.1219 21C27.3616 20.7609 27.6586 20.6413 28.0127 20.6413C29.0575 20.6413 29.9437 20.2774 30.6715 19.5496C31.399 18.8221 31.7627 17.936 31.7627 16.8913C31.7627 15.8629 31.4043 14.9904 30.6873 14.2738C29.9704 13.5571 29.1002 13.1795 28.0769 13.1409C27.7925 13.6517 27.4179 14.0972 26.9532 14.4775C26.4884 14.8578 25.9698 15.1591 25.3973 15.3813C25.0704 15.5052 24.7512 15.4949 24.4398 15.3504C24.1284 15.206 23.9209 14.9685 23.8173 14.6379C23.7104 14.311 23.7231 13.9899 23.8556 13.6746C23.9881 13.3596 24.2231 13.1486 24.5606 13.0417C25.0629 12.8709 25.47 12.5674 25.7819 12.1313C26.0938 11.6954 26.2498 11.196 26.2498 10.6329C26.2498 9.93739 26.008 9.34822 25.5244 8.86544C25.0411 8.38239 24.4493 8.14086 23.749 8.14086C23.0487 8.14086 22.457 8.38253 21.974 8.86586C21.4912 9.34919 21.2498 9.941 21.2498 10.6413ZM18.7498 29.3271V10.6413C18.7498 9.941 18.508 9.34919 18.0244 8.86586C17.5411 8.38253 16.9493 8.14086 16.249 8.14086C15.5487 8.14086 14.957 8.38253 14.474 8.86586C13.9912 9.34919 13.7498 9.941 13.7498 10.6413C13.7498 11.1818 13.9015 11.6743 14.2048 12.1188C14.5084 12.5632 14.9112 12.8709 15.4131 13.0417C15.7401 13.1486 15.9794 13.357 16.1311 13.6667C16.2827 13.9764 16.3061 14.296 16.2011 14.6254C16.0752 14.9546 15.8548 15.1911 15.5398 15.335C15.2248 15.4792 14.8984 15.4893 14.5606 15.3654C13.9881 15.1432 13.4695 14.8446 13.0048 14.4696C12.5401 14.0946 12.1655 13.6517 11.8811 13.1409C10.8855 13.1795 10.0293 13.5625 9.31231 14.29C8.59537 15.0175 8.2369 15.8863 8.2369 16.8963C8.2369 17.9377 8.60065 18.8221 9.32815 19.5496C10.0559 20.2774 10.9422 20.6413 11.9869 20.6413C12.3411 20.6413 12.638 20.761 12.8777 21.0004C13.1172 21.2402 13.2369 21.5372 13.2369 21.8917C13.2369 22.2459 13.1172 22.5427 12.8777 22.7821C12.638 23.0213 12.3411 23.1409 11.9869 23.1409C11.3738 23.1409 10.7826 23.0554 10.2131 22.8846C9.6437 22.7138 9.12287 22.4681 8.65065 22.1475C8.56287 22.3506 8.4987 22.5571 8.45815 22.7671C8.41759 22.9771 8.39731 23.1872 8.39731 23.3975C8.39731 24.4422 8.76106 25.3285 9.48856 26.0563C10.2161 26.7838 11.1023 27.1475 12.1473 27.1475C12.7701 27.1475 13.3462 27.0135 13.8756 26.7454C14.4051 26.4771 14.844 26.0941 15.1923 25.5963C15.4012 25.3018 15.673 25.1284 16.0077 25.0759C16.3422 25.0231 16.6558 25.1009 16.9486 25.3092C17.2413 25.5175 17.4144 25.7878 17.4677 26.12C17.5211 26.4525 17.4409 26.765 17.2273 27.0575C16.7851 27.6603 16.2631 28.1588 15.6615 28.5529C15.0601 28.9471 14.409 29.2179 13.7081 29.3654C13.7465 30.0279 14.0115 30.6038 14.5031 31.0929C14.9945 31.5824 15.5745 31.8271 16.2431 31.8271C16.9448 31.8271 17.538 31.5854 18.0227 31.1021C18.5075 30.6188 18.7498 30.0271 18.7498 29.3271Z" fill="var(--fill-0, white)"/>
</g>
</g>
</svg>
