<svg preserveAspectRatio="none" width="100%" height="100%" overflow="visible" style="display: block;" viewBox="0 0 40 40" fill="none" xmlns="http://www.w3.org/2000/svg">
<g id="groups">
<mask id="mask0_3743_968" style="mask-type:alpha" maskUnits="userSpaceOnUse" x="0" y="0" width="40" height="40">
<rect id="Bounding box" width="40" height="40" fill="var(--fill-0, #D9D9D9)"/>
</mask>
<g mask="url(#mask0_3743_968)">
<path id="groups_2" d="M2.27583 29.6475C1.86722 29.6475 1.52458 29.5093 1.24792 29.2329C0.971527 28.9563 0.833333 28.6136 0.833333 28.205V27.6154C0.833333 26.5065 1.41236 25.5957 2.57042 24.8829C3.72875 24.1704 5.23847 23.8142 7.09958 23.8142C7.40708 23.8142 7.71681 23.8238 8.02875 23.8429C8.34069 23.8621 8.65486 23.8994 8.97125 23.955C8.64653 24.4744 8.40556 25.0135 8.24833 25.5721C8.09139 26.131 8.01292 26.7042 8.01292 27.2917V29.6475H2.27583ZM12.3462 29.6475C11.9124 29.6475 11.5518 29.5031 11.2646 29.2142C10.9771 28.9256 10.8333 28.5678 10.8333 28.1408V27.3558C10.8333 26.5756 11.0524 25.8624 11.4904 25.2163C11.9285 24.5699 12.5599 24.0064 13.3846 23.5258C14.2093 23.045 15.1838 22.6844 16.3079 22.4442C17.4318 22.2036 18.6604 22.0833 19.9937 22.0833C21.3526 22.0833 22.594 22.2036 23.7179 22.4442C24.8418 22.6844 25.8161 23.045 26.6408 23.5258C27.4658 24.0064 28.0931 24.5699 28.5225 25.2163C28.9519 25.8624 29.1667 26.5756 29.1667 27.3558V28.1408C29.1667 28.5678 29.0222 28.9256 28.7333 29.2142C28.4447 29.5031 28.0869 29.6475 27.66 29.6475H12.3462ZM31.9871 29.6475V27.2937C31.9871 26.6662 31.9129 26.0758 31.7646 25.5225C31.616 24.9692 31.3932 24.4467 31.0963 23.955C31.4232 23.8994 31.7357 23.8621 32.0338 23.8429C32.3318 23.8238 32.6261 23.8142 32.9167 23.8142C34.7778 23.8142 36.2847 24.1663 37.4375 24.8704C38.5903 25.5743 39.1667 26.4893 39.1667 27.6154V28.205C39.1667 28.6136 39.0285 28.9563 38.7521 29.2329C38.4754 29.5093 38.1328 29.6475 37.7242 29.6475H31.9871ZM13.4617 27.1475H26.5642V26.9713C26.3933 26.2982 25.6839 25.7319 24.4358 25.2725C23.1881 24.8131 21.7094 24.5833 20 24.5833C18.2906 24.5833 16.8119 24.8131 15.5642 25.2725C14.3161 25.7319 13.6153 26.2982 13.4617 26.9713V27.1475ZM7.095 22.1954C6.30944 22.1954 5.63833 21.9161 5.08167 21.3575C4.525 20.7989 4.24667 20.1274 4.24667 19.3429C4.24667 18.5482 4.52611 17.8768 5.085 17.3288C5.64361 16.7807 6.31514 16.5067 7.09958 16.5067C7.89431 16.5067 8.56833 16.7807 9.12167 17.3288C9.67528 17.8768 9.95208 18.5499 9.95208 19.3479C9.95208 20.1224 9.67819 20.7906 9.13042 21.3525C8.58292 21.9144 7.90444 22.1954 7.095 22.1954ZM32.9167 22.1954C32.1389 22.1954 31.469 21.9144 30.9071 21.3525C30.3451 20.7906 30.0642 20.1224 30.0642 19.3479C30.0642 18.5499 30.3451 17.8768 30.9071 17.3288C31.469 16.7807 32.1399 16.5067 32.9196 16.5067C33.7232 16.5067 34.399 16.7807 34.9471 17.3288C35.4951 17.8768 35.7692 18.5482 35.7692 19.3429C35.7692 20.1274 35.4958 20.7989 34.9492 21.3575C34.4025 21.9161 33.725 22.1954 32.9167 22.1954ZM20.0058 20.8333C18.8053 20.8333 17.7831 20.4126 16.9392 19.5712C16.0953 18.7301 15.6733 17.7086 15.6733 16.5067C15.6733 15.2806 16.0939 14.2529 16.935 13.4237C17.7764 12.5943 18.7981 12.1796 20 12.1796C21.2258 12.1796 22.2535 12.5937 23.0829 13.4221C23.9121 14.2501 24.3267 15.2764 24.3267 16.5008C24.3267 17.7011 23.9126 18.7233 23.0846 19.5675C22.2563 20.4114 21.23 20.8333 20.0058 20.8333ZM20.0079 18.3333C20.5176 18.3333 20.9482 18.155 21.2996 17.7983C21.6512 17.4414 21.8271 17.0081 21.8271 16.4983C21.8271 15.9889 21.6519 15.5583 21.3017 15.2067C20.9514 14.8553 20.5175 14.6796 20 14.6796C19.4958 14.6796 19.0653 14.8547 18.7083 15.205C18.3514 15.555 18.1729 15.9889 18.1729 16.5067C18.1729 17.0108 18.3514 17.4414 18.7083 17.7983C19.0653 18.155 19.4985 18.3333 20.0079 18.3333Z" fill="var(--fill-0, white)"/>
</g>
</g>
</svg>
